<svg xmlns="http://www.w3.org/2000/svg" viewBox="0 0 36 36"><path style="text-indent:0;text-align:start;line-height:normal;text-transform:none;block-progression:tb" fill="#d85b53" d="M30.281 1c-.216 0-.375.168-.375.406v8.531c0 .239.16.407.375.407h2.344c.216 0 .375-.168.375-.406V1.405c0-.238-.159-.406-.375-.406zm-18.25 1.031c-.24.01-.422.044-.531.094h-.031c-.175.065-.245.094-.25.094L3.656 7.03c-.634.4-.834 1.28-.437 1.938l.187.344c.303.5.83.707 1.344.624.169-.027.337-.084.5-.187l7.063-4.156c.706-1.224 1.356-1.483 2.624-1.438 1.832-.038 3.758-.031 5.626-.031v1H15.03c-.752 0-1.108.181-1.375.375-.121.093-.21.237-.312.375-.121.221-.25.442-.25.813 0 .629.184.966.5 1.218.316.253.818.407 1.437.407h2.719c.716 0 1.473.258 2.219.5.742.24 1.468.47 1.906.5h2.719c.807-.006 1.523-.244 2.187-.5.666-.258 1.278-.563 1.938-.563h.187V2.031zM17.97 11.5c-3.603 0-6.469 2.906-6.469 6.5 0 3.596 2.866 6.5 6.469 6.5 3.602 0 6.531-2.908 6.531-6.5 0-3.59-2.93-6.5-6.531-6.5zm.031 2a.506.506 0 0 1 .5.5v.563c.965.21 1.75.89 1.75 1.874a.514.514 0 0 1-.5.5.514.514 0 0 1-.5-.5c0-.55-.505-1.017-1.219-1.03h-.062c-.715.012-1.219.479-1.219 1.03 0 .56.52 1.063 1.25 1.063 1.006 0 2.25.68 2.25 2.063 0 .997-.77 1.793-1.75 2V22a.514.514 0 0 1-.5.5.514.514 0 0 1-.5-.5v-.563c-.965-.21-1.75-.89-1.75-1.875-.004-.264.236-.53.5-.53s.504.266.5.53c0 .56.52 1.032 1.25 1.032s1.25-.473 1.25-1.032S18.73 18.5 18 18.5h-.063c-1.177-.033-2.187-.922-2.187-2.063 0-.997.77-1.793 1.75-2V14c-.004-.262.238-.496.5-.5zM3.375 25.656c-.216 0-.375.168-.375.407v8.53c0 .24.159.407.375.407h2.344c.216 0 .375-.168.375-.406v-8.532c0-.238-.159-.406-.375-.406zm28.25.375c-.126-.013-.246.01-.375.032a1.317 1.317 0 0 0-.5.187l-7.063 4.156c-.853 1.11-1.128 1.284-2.625 1.438-1.864.033-3.782.032-5.656.031v-1h5.563c.752 0 1.108-.18 1.375-.375.12-.093.21-.238.312-.375.122-.222.25-.442.25-.813 0-.629-.184-.966-.5-1.218-.316-.253-.818-.407-1.437-.407H18.25c-.716 0-1.473-.258-2.219-.5-.745-.24-1.5-.473-1.937-.5h-2.688c-.808.005-1.522.243-2.187.5-.666.258-1.278.563-1.938.563h-.187v6.219h16.875c.238-.01.42-.044.531-.094h.031c.175-.065.245-.094.25-.094l7.563-4.812c.634-.4.834-1.28.437-1.938l-.187-.343a1.359 1.359 0 0 0-.969-.657z" class="color000000 svgShape" color="#000" font-family="sans-serif" font-weight="400" overflow="visible"/></svg>